<?xml version="1.0" encoding="utf-8"?>
<!-- Generator: Adobe Illustrator 22.0.1, SVG Export Plug-In . SVG Version: 6.00 Build 0)  -->
<svg version="1.1" id="_x2014_ÎÓÈ_x5F_1" xmlns="http://www.w3.org/2000/svg" xmlns:xlink="http://www.w3.org/1999/xlink"
	 x="0px" y="0px" viewBox="0 0 610 610" enable-background="new 0 0 610 610" xml:space="preserve">
<g>
	<path fill="#FFFFFF" d="M302.6,479c-18.4,4-37.6,6-57.6,6c-26.8,0-52.4-4-76.4-10.4c-26.8,18-68,39.6-123.6,50.4
		c0,0,23.2-39.2,35.6-94.8C34.2,393.8,5,342.2,5,285C5,174.6,112.6,85,245,85c84,0,158.4,36,200.8,90.8c-6.8-0.4-13.6-0.8-20.8-0.8
		c-110.4,0-200,76.4-200,170C225,399.4,255.4,448.2,302.6,479z"/>
	<path fill="#FFFFFF" d="M605,345c0-72.4-61.6-133.2-144-146.8c-11.6-2-23.6-3.2-36-3.2c-99.6,0-180,67.2-180,150
		c0,53.6,33.6,100.8,84.8,127.2c27.6,14.4,60.4,22.8,95.2,22.8c20,0,39.2-2.8,57.6-8c20,13.6,50.8,30,92.4,38
		c0,0-17.6-29.2-26.4-70.8C583,426.6,605,387.8,605,345z M345,365c-11,0-20-9-20-20c0-11,9-20,20-20c11,0,20,9,20,20
		C365,356.1,356.1,365,345,365z M425,365c-11,0-20-9-20-20c0-11,9-20,20-20c11,0,20,9,20,20C445,356.1,436.1,365,425,365z M505,365
		c-11,0-20-9-20-20c0-11,9-20,20-20c11,0,20,9,20,20C525,356.1,516.1,365,505,365z"/>
</g>
</svg>
