<?xml version="1.0" encoding="utf-8"?>
<!-- Generator: Adobe Illustrator 22.0.1, SVG Export Plug-In . SVG Version: 6.00 Build 0)  -->
<svg version="1.1" id="_x2014_ÎÓÈ_x5F_1" xmlns="http://www.w3.org/2000/svg" xmlns:xlink="http://www.w3.org/1999/xlink"
	 x="0px" y="0px" viewBox="0 0 610 610" enable-background="new 0 0 610 610" xml:space="preserve">
<g>
	<path fill="#FFFFFF" d="M337.6,290.3c-15.7,6.4-32.9,10.1-51,10.1c-22.1,0-43-5.4-61.5-14.8C73.1,300.8,45.5,375.3,45.5,456v76.2
		c21.3,15.6,49.6,29,82.8,39.2V475L145,576.2c41.8,11,90.2,17.3,141.9,17.3c51.5,0,99.7-6.3,141.4-17.2l12.8-77.7
		c-29-2.6-56.4-14.4-78.4-33.9C312.2,419.8,303,345.7,337.6,290.3z"/>
	<path fill="#FFFFFF" d="M286.6,269.4c69.8,0,126.4-56.6,126.4-126.5c0-69.8-56.6-126.5-126.4-126.5c-69.8,0-126.5,56.6-126.5,126.5
		C160.2,212.8,216.8,269.4,286.6,269.4z"/>
	<path fill="#FFFFFF" d="M444.9,498.9v72.7c30.4-9.3,56.6-21.2,77.2-35v-55.9c-20.6,12-44.3,18.5-68.7,18.5
		C450.5,499.2,447.7,499,444.9,498.9z"/>
	<path fill="#FFFFFF" d="M526.8,278.2c-20.6-18.4-47.2-28.5-74.9-28.5c-32.3,0-63,13.8-84.4,37.8c-41.3,46.5-37.1,118,9.3,159.3
		c20.6,18.4,47.3,28.5,74.9,28.5c32.3,0,63-13.8,84.4-37.8C577.4,391.1,573.3,319.6,526.8,278.2z M451.9,275.7
		c10.7,0,19.3,8.7,19.3,19.3c0,10.7-8.7,19.3-19.3,19.3c-10.7,0-19.3-8.7-19.3-19.3C432.5,284.4,441.2,275.7,451.9,275.7z
		 M484.2,440.8h-31.2h-31.2V430h0c8.6,0,15.6-7,15.6-15.6V356c0-7.8-6.3-14-14-14h-4v-8.6h18h15.6h3.7h11.8v81.1
		c0,8.6,7,15.6,15.6,15.6V440.8z"/>
</g>
</svg>
