<?xml version="1.0" encoding="utf-8"?>
<!-- Generator: Adobe Illustrator 22.0.1, SVG Export Plug-In . SVG Version: 6.00 Build 0)  -->
<svg version="1.1" id="Layer_1" xmlns="http://www.w3.org/2000/svg" xmlns:xlink="http://www.w3.org/1999/xlink" x="0px" y="0px"
	 viewBox="0 0 455.9 455.9" enable-background="new 0 0 455.9 455.9" xml:space="preserve">
<g>
	<g>
		<g>
			<path fill="none" d="M445.3,349.3c0,13.5-11,24.5-24.5,24.5H35c-13.5,0-24.5-11-24.5-24.5V94.9c0-13.5,11-24.5,24.5-24.5h385.9
				c13.5,0,24.5,11,24.5,24.5V349.3z"/>
		</g>
		<g>
			<path d="M420.9,381.9H35c-18,0-32.6-14.6-32.6-32.6V94.9c0-18,14.6-32.6,32.6-32.6h385.9c18,0,32.6,14.6,32.6,32.6v254.4
				C453.5,367.3,438.9,381.9,420.9,381.9z M35,78.5c-9,0-16.3,7.3-16.3,16.3v254.4c0,9,7.3,16.3,16.3,16.3h385.9
				c9,0,16.3-7.3,16.3-16.3V94.9c0-9-7.3-16.3-16.3-16.3H35z"/>
		</g>
	</g>
	<g>
		<g>
			<rect x="10.5" y="125" fill="none" width="434.8" height="63.6"/>
		</g>
		<g>
			<path d="M453.5,196.8H2.4v-79.9h451.1V196.8z M18.7,180.5h418.5v-47.3H18.7V180.5z"/>
		</g>
	</g>
	<g>
		<g>
			<path fill="none" d="M387.1,301.2c0,9-7.3,16.3-16.3,16.3h-60.2c-9,0-16.3-7.3-16.3-16.3v-32.1c0-9,7.3-16.3,16.3-16.3h60.2
				c9,0,16.3,7.3,16.3,16.3V301.2z"/>
		</g>
		<g>
			<path d="M370.8,325.6h-60.2c-13.5,0-24.5-11-24.5-24.5v-32.1c0-13.5,11-24.5,24.5-24.5h60.2c13.5,0,24.5,11,24.5,24.5v32.1
				C395.3,314.7,384.3,325.6,370.8,325.6z M310.6,260.9c-4.5,0-8.2,3.7-8.2,8.2v32.1c0,4.5,3.7,8.2,8.2,8.2h60.2
				c4.5,0,8.2-3.7,8.2-8.2v-32.1c0-4.5-3.7-8.2-8.2-8.2H310.6z"/>
		</g>
	</g>
	<g>
		<path d="M228.1,267.9H65c-4.5,0-8.2-3.7-8.2-8.2c0-4.5,3.7-8.2,8.2-8.2h163.1c4.5,0,8.2,3.7,8.2,8.2
			C236.2,264.2,232.6,267.9,228.1,267.9z"/>
	</g>
	<g>
		<path d="M155.4,316.8H65c-4.5,0-8.2-3.7-8.2-8.2c0-4.5,3.7-8.2,8.2-8.2h90.4c4.5,0,8.2,3.7,8.2,8.2
			C163.5,313.2,159.9,316.8,155.4,316.8z"/>
	</g>
</g>
</svg>
