<?xml version="1.0" encoding="utf-8"?>
<!-- Generator: Adobe Illustrator 22.0.1, SVG Export Plug-In . SVG Version: 6.00 Build 0)  -->
<svg version="1.1" id="Layer_1" xmlns="http://www.w3.org/2000/svg" xmlns:xlink="http://www.w3.org/1999/xlink" x="0px" y="0px"
	 viewBox="0 0 49.6 49.6" enable-background="new 0 0 49.6 49.6" xml:space="preserve">
<path fill="#79449A" d="M45.3,9.2H4.6c-2.1,0-3.8,1.7-3.8,3.8v24c0,2.1,1.7,3.8,3.8,3.8h40.6c2.1,0,3.8-1.7,3.8-3.8V13
	C49.1,10.9,47.4,9.2,45.3,9.2z M47,39.2c-0.2,0.2-0.4,0.3-0.7,0.3c-0.2,0-0.5-0.1-0.7-0.3L32.6,26.1c-0.1-0.1-0.1-0.2-0.2-0.3
	l-4.1,3.6c-0.9,0.9-2.1,1.3-3.2,1.3c-1.2,0-2.4-0.5-3.2-1.3l-4.3-3.8c0,0.2-0.1,0.3-0.2,0.5L4.2,39.2c-0.2,0.2-0.4,0.3-0.7,0.3
	c-0.2,0-0.5-0.1-0.7-0.3c-0.4-0.4-0.4-1,0-1.4L16,24.7c0.1-0.1,0.2-0.2,0.3-0.2l-13.4-12c-0.4-0.4-0.4-1-0.1-1.4
	c0.3-0.4,1-0.4,1.4-0.1l19,16.9c0.5,0.5,1.2,0.8,1.9,0.8c0.7,0,1.4-0.3,1.9-0.8l18.7-16.7l0,0c0.4-0.4,1-0.3,1.4,0.1
	c0.4,0.4,0.3,1-0.1,1.4L33.7,24.6c0.1,0,0.1,0.1,0.2,0.1L47,37.8C47.4,38.2,47.4,38.8,47,39.2z"/>
</svg>
