<?xml version="1.0" encoding="utf-8"?>
<!-- Generator: Adobe Illustrator 22.0.1, SVG Export Plug-In . SVG Version: 6.00 Build 0)  -->
<svg version="1.1" id="_x2014_ÎÓÈ_x5F_1" xmlns="http://www.w3.org/2000/svg" xmlns:xlink="http://www.w3.org/1999/xlink"
	 x="0px" y="0px" viewBox="0 0 610 610" enable-background="new 0 0 610 610" xml:space="preserve">
<g id="XMLID_2_">
	<g id="XMLID_4_">
		<g id="XMLID_14_">
			<path id="XMLID_27_" fill="#FFFFFF" d="M556,89.2l-362.2-52c-7.3-1.1-14.1,4-15.2,11.4l-6.4,44.9l21,0.5l5-35.1l347.5,49.9
				L505.3,390l-2.4,94.8c5.8-0.8,10.6-5.3,11.5-11.4l53-369.1C568.4,97,563.3,90.2,556,89.2z"/>
		</g>
	</g>
	<g id="XMLID_20_">
		<g id="XMLID_31_">
			<path id="XMLID_42_" fill="#FFFFFF" d="M435.7,161.4c-0.7-7.4-7.2-12.8-14.6-12.1L56.7,182.9c-7.4,0.7-12.8,7.2-12.1,14.6
				l34.3,371.3c0.7,7.4,7.2,12.8,14.6,12.1l364.4-33.7c7.4-0.7,12.8-7.2,12.1-14.6L435.7,161.4z M93.1,495.4L66.1,203l349.6-32.3
				l27,292.4L93.1,495.4z"/>
		</g>
	</g>
	<g id="XMLID_22_">
		<g id="XMLID_13_">
			<path id="XMLID_25_" fill="#FFFFFF" d="M320.7,320.8l-49.4,41.1l-71.5-70.5c-2.6-2.5-6.1-3.8-9.7-3.5c-3.5,0.3-6.9,2.2-9,5.1
				l-86.9,86.2l9.5,103.4l325.8-30.1l-9.2-99.6l-85.6-33.1C330.3,317,324.7,317.5,320.7,320.8z"/>
		</g>
	</g>
	<g id="XMLID_23_">
		<g id="XMLID_12_">
			
				<ellipse id="XMLID_24_" transform="matrix(0.6391 -0.7692 0.7692 0.6391 -56.2445 338.4201)" fill="#FFFFFF" cx="332.5" cy="229.1" rx="28.6" ry="28.6"/>
		</g>
	</g>
	<g id="XMLID_28_">
		<g id="XMLID_11_">
			<path id="XMLID_26_" fill="#FFFFFF" d="M487.1,113.2L121.3,104c-7.4-0.2-13.6,5.7-13.7,13.1l-1.2,49.5l20.9-1.9l1-39.6l350.9,8.8
				L471.8,424l8.2,88.5c6-1.2,10.6-6.4,10.8-12.8l9.4-372.8C500.3,119.5,494.5,113.4,487.1,113.2z"/>
		</g>
	</g>
</g>
</svg>
