<?xml version="1.0" encoding="utf-8"?>
<!-- Generator: Adobe Illustrator 22.0.1, SVG Export Plug-In . SVG Version: 6.00 Build 0)  -->
<svg version="1.1" id="Layer_1" xmlns="http://www.w3.org/2000/svg" xmlns:xlink="http://www.w3.org/1999/xlink" x="0px" y="0px"
	 viewBox="0 0 455.9 455.9" enable-background="new 0 0 455.9 455.9" xml:space="preserve">
<g>
	<path d="M422.4,119h-51.5h-51.5V99.5V80c0-8.3-3.4-15.8-8.8-21.3c-5.5-5.5-13-8.8-21.3-8.8h-61.1h-61.1c-8.3,0-15.8,3.4-21.3,8.8
		c-5.5,5.5-8.8,13-8.8,21.3v19.5V119H85.4H33.9c-8.2,0-15.7,3.3-21.1,8.7C7.4,133.2,4,140.6,4,148.8v20.9v20.9c0,3.7,1.5,7,3.9,9.5
		c2.4,2.4,5.8,3.9,9.5,3.9h1h1v79.5V363c0,8.2,3.3,15.7,8.7,21.1c5.4,5.4,12.9,8.7,21.1,8.7h178.9h178.9c8.2,0,15.7-3.3,21.1-8.7
		c5.4-5.4,8.7-12.9,8.7-21.1v-79.5V204h1h1c3.7,0,7-1.5,9.5-3.9c2.4-2.4,3.9-5.8,3.9-9.5v-20.9v-20.9c0-8.2-3.3-15.7-8.7-21.1
		C438.1,122.4,430.7,119,422.4,119L422.4,119L422.4,119z M150.1,80c0-4.7,1.9-8.9,5-12c3.1-3.1,7.3-5,12-5h61.1h61.1
		c4.7,0,8.9,1.9,12,5c3.1,3.1,5,7.3,5,12v19.5V119h-4.8h-4.8V99.5V80c0-2-0.8-3.9-2.2-5.3c-1.3-1.3-3.2-2.2-5.3-2.2h-61.1h-61.1
		c-2.1,0-3.9,0.8-5.3,2.2c-1.3,1.3-2.2,3.2-2.2,5.3v19.5V119h-4.8h-4.8V99.5V80z M283.5,85.7v16.7V119h-55.4h-55.4v-16.7V85.7h55.4
		H283.5z M423.8,363c0,4.6-1.9,8.8-4.9,11.8c-3,3-7.2,4.9-11.8,4.9H228.1H49.2c-4.6,0-8.8-1.9-11.8-4.9c-3-3-4.9-7.2-4.9-11.8v-79.5
		V204h26.9h26.9v13.1v13.1c0,4.5,1.8,8.5,4.7,11.4c2.9,2.9,7,4.7,11.4,4.7h14.2h14.2c4.5,0,8.5-1.8,11.4-4.7c2.9-2.9,4.7-7,4.7-11.4
		v-13.1V204h81.1h81.1v13.1v13.1c0,4.5,1.8,8.5,4.7,11.4c2.9,2.9,7,4.7,11.4,4.7h14.2h14.2c4.5,0,8.5-1.8,11.4-4.7
		c2.9-2.9,4.7-7,4.7-11.4v-13.1V204h26.9h26.9v79.5V363z M99.4,230.3v-26.1v-26.1c0-0.8,0.3-1.6,0.9-2.1c0.6-0.6,1.3-0.9,2.1-0.9
		h14.2h14.2c0.8,0,1.6,0.3,2.2,0.9c0.6,0.6,0.9,1.3,0.9,2.1v26.1v26.1c0,0.8-0.3,1.6-0.9,2.2c-0.6,0.6-1.3,0.9-2.2,0.9h-14.2h-14.2
		c-0.8,0-1.6-0.3-2.1-0.9C99.8,231.9,99.4,231.1,99.4,230.3L99.4,230.3L99.4,230.3z M322.4,230.3v-26.1v-26.1c0-0.8,0.3-1.6,0.9-2.1
		c0.6-0.6,1.3-0.9,2.1-0.9h14.2h14.2c0.8,0,1.6,0.3,2.2,0.9c0.6,0.6,0.9,1.3,0.9,2.1v26.1v26.1c0,0.8-0.3,1.6-0.9,2.2
		c-0.6,0.6-1.3,0.9-2.2,0.9h-14.2h-14.2c-0.8,0-1.6-0.3-2.1-0.9C322.8,231.9,322.4,231.1,322.4,230.3L322.4,230.3L322.4,230.3z
		 M439.1,190.6c0,0.1,0,0.1-0.1,0.2c0,0-0.1,0.1-0.2,0.1h-34.4H370v-6.4v-6.4c0-4.5-1.8-8.5-4.7-11.4c-2.9-2.9-7-4.7-11.4-4.7h-14.2
		h-14.2c-4.5,0-8.5,1.8-11.4,4.7c-2.9,2.9-4.7,7-4.7,11.4v6.4v6.4h-81.1H147v-6.4v-6.4c0-4.5-1.8-8.5-4.7-11.4
		c-2.9-2.9-7-4.7-11.4-4.7h-14.2h-14.2c-4.5,0-8.5,1.8-11.4,4.7c-2.9,2.9-4.7,7-4.7,11.4v6.4v6.4H51.9H17.4c-0.1,0-0.1,0-0.2-0.1
		c0,0-0.1-0.1-0.1-0.2v-20.9v-20.9c0-4.6,1.9-8.8,4.9-11.8c3-3,7.2-4.9,11.8-4.9h194.3h194.3c4.6,0,8.8,1.9,11.8,4.9
		c3,3,4.9,7.2,4.9,11.8v20.9V190.6z M439.1,190.6"/>
	<path d="M407.1,395.4H49.2c-8.7,0-16.8-3.4-22.9-9.5c-6.1-6.1-9.5-14.3-9.5-22.9V206.6c-4-0.2-7.8-1.8-10.7-4.7
		c-3-3-4.7-7-4.7-11.3v-41.8c0-8.7,3.4-16.8,9.5-22.9c6.1-6.1,14.3-9.5,22.9-9.5h100.5V80c0-8.7,3.4-16.9,9.6-23.1
		c6.2-6.2,14.4-9.6,23.1-9.6h122.2c8.7,0,16.9,3.4,23.1,9.6C318.6,63,322,71.2,322,80v36.4h100.5c8.6,0,16.8,3.4,22.9,9.5
		c6.1,6.1,9.5,14.3,9.5,22.9v41.8c0,4.3-1.7,8.3-4.7,11.3c-2.9,2.9-6.7,4.5-10.7,4.7V363c0,8.6-3.4,16.8-9.5,22.9
		C423.8,392,415.7,395.4,407.1,395.4z M33.9,121.6c-7.3,0-14.1,2.8-19.2,8c-5.1,5.1-8,12-8,19.2v41.8c0,2.9,1.1,5.6,3.2,7.6
		c2,2,4.7,3.2,7.6,3.2H22V363c0,7.3,2.8,14.1,8,19.2c5.1,5.1,12,8,19.2,8h357.8c7.3,0,14.1-2.8,19.2-8c5.1-5.1,8-12,8-19.2V201.4
		h4.6c2.9,0,5.6-1.1,7.6-3.2c2-2,3.2-4.7,3.2-7.6v-41.8c0-7.3-2.8-14.1-8-19.2c-5.1-5.1-12-8-19.2-8H316.8V80
		c0-7.3-2.9-14.2-8.1-19.5c-5.2-5.2-12.1-8.1-19.5-8.1H167.1c-7.3,0-14.2,2.9-19.5,8.1c-5.2,5.2-8.1,12.1-8.1,19.5v41.7H33.9z
		 M407.1,382.3H49.2c-5.1,0-10-2-13.6-5.7c-3.6-3.6-5.7-8.5-5.7-13.6V201.4h59v28.9c0,3.6,1.4,7,4,9.6c2.6,2.6,6,4,9.6,4h28.3
		c3.6,0,7-1.4,9.6-4c2.6-2.6,4-6,4-9.6v-28.9h167.5v28.9c0,3.6,1.4,7,4,9.6c2.6,2.6,6,4,9.6,4h28.4c3.6,0,7-1.4,9.6-4
		c2.6-2.6,4-6,4-9.6v-28.9h59V363c0,5.1-2,10-5.7,13.6C417.1,380.3,412.2,382.3,407.1,382.3z M35.1,206.6V363c0,3.8,1.5,7.3,4.1,10
		c2.7,2.7,6.2,4.1,10,4.1h357.8c3.8,0,7.3-1.5,10-4.1c2.7-2.7,4.1-6.2,4.1-10V206.6h-48.6v23.7c0,5-2,9.7-5.5,13.3
		c-3.5,3.5-8.3,5.5-13.3,5.5h-28.4c-5,0-9.7-2-13.3-5.5c-3.5-3.5-5.5-8.3-5.5-13.3v-23.7H149.6v23.7c0,5-2,9.7-5.5,13.3
		c-3.6,3.5-8.3,5.5-13.3,5.5h-28.3c-5,0-9.7-2-13.3-5.5c-3.6-3.6-5.5-8.3-5.5-13.3v-23.7H35.1z M353.8,235.9h-28.4
		c-1.5,0-2.9-0.6-4-1.7c-1.1-1.1-1.7-2.5-1.7-4v-52.1c0-1.5,0.6-2.9,1.7-4c1.1-1.1,2.5-1.7,4-1.7h28.4c1.5,0,2.9,0.6,4,1.7
		c1.1,1.1,1.7,2.5,1.7,4v52.1c0,1.5-0.6,2.9-1.7,4C356.7,235.3,355.3,235.9,353.8,235.9z M325.5,177.7c-0.1,0-0.2,0.1-0.3,0.1
		c-0.1,0.1-0.1,0.2-0.1,0.3v52.1c0,0.1,0.1,0.3,0.1,0.3c0.1,0.1,0.2,0.1,0.3,0.1h28.4c0.1,0,0.3-0.1,0.3-0.1
		c0.1-0.1,0.1-0.2,0.1-0.3v-52.1c0-0.1-0.1-0.3-0.1-0.3c-0.1-0.1-0.2-0.1-0.3-0.1H325.5z M130.8,235.9h-28.4c-1.5,0-2.9-0.6-4-1.7
		c-1.1-1.1-1.7-2.5-1.7-4v-52.1c0-1.5,0.6-2.9,1.7-4c1.1-1.1,2.5-1.7,4-1.7h28.4c1.5,0,2.9,0.6,4,1.7c1.1,1.1,1.7,2.5,1.7,4v52.1
		c0,1.5-0.6,2.9-1.7,4C133.7,235.3,132.3,235.9,130.8,235.9z M102.5,177.7c-0.1,0-0.3,0.1-0.3,0.1c-0.1,0.1-0.1,0.2-0.1,0.3v52.1
		c0,0.1,0.1,0.3,0.1,0.3s0.2,0.1,0.3,0.1h28.4c0.2,0,0.3-0.1,0.3-0.1c0.1-0.1,0.1-0.2,0.1-0.3v-52.1c0-0.1-0.1-0.3-0.1-0.3
		c-0.1-0.1-0.2-0.1-0.3-0.1H102.5z M438.9,193.5h-71.5v-15.3c0-3.6-1.4-7-4-9.6c-2.6-2.6-6-4-9.6-4h-28.4c-3.6,0-7,1.4-9.6,4
		c-2.6,2.6-4,6-4,9.6v15.3H144.4v-15.3c0-3.6-1.4-7-4-9.6s-6-4-9.6-4h-28.4c-3.6,0-7,1.4-9.6,4c-2.6,2.6-4,6-4,9.6v15.3H17.4
		c-0.8,0-1.5-0.3-2-0.8c-0.5-0.5-0.8-1.3-0.8-2v-41.8c0-5.1,2-10,5.7-13.6c3.6-3.6,8.5-5.7,13.6-5.7h388.6c5.1,0,10,2,13.6,5.7
		c3.6,3.6,5.7,8.5,5.7,13.6v41.8c0,0.8-0.3,1.5-0.8,2C440.3,193.2,439.6,193.5,438.9,193.5z M372.6,188.3h63.9v-39.4
		c0-3.8-1.5-7.3-4.1-10c-2.7-2.7-6.2-4.1-10-4.1H33.9c-3.8,0-7.3,1.5-10,4.1c-2.7,2.7-4.1,6.2-4.1,10v39.4h63.9v-10.1
		c0-5,2-9.7,5.5-13.3c3.6-3.5,8.3-5.5,13.3-5.5h28.4c5,0,9.7,2,13.3,5.5c3.5,3.6,5.5,8.3,5.5,13.3v10.1h157.1v-10.1
		c0-5,2-9.7,5.5-13.3c3.5-3.5,8.3-5.5,13.3-5.5h28.4c5,0,9.7,2,13.3,5.5c3.5,3.6,5.5,8.3,5.5,13.3V188.3z M308.8,121.6h-14.8V80
		c0-1.3-0.5-2.5-1.4-3.4c-0.9-0.9-2.1-1.4-3.4-1.4H167.1c-1.3,0-2.5,0.5-3.4,1.4c-0.9,0.9-1.4,2.1-1.4,3.4v41.7h-14.8V80
		c0-5.2,2-10.1,5.7-13.9c3.7-3.7,8.6-5.7,13.9-5.7h122.2c5.2,0,10.1,2,13.9,5.7c3.7,3.7,5.7,8.6,5.7,13.9V121.6z M299.3,116.4h4.4
		V80c0-3.8-1.5-7.4-4.2-10.2c-2.7-2.7-6.3-4.2-10.2-4.2H167.1c-3.8,0-7.5,1.5-10.2,4.2c-2.7,2.7-4.2,6.3-4.2,10.2v36.4h4.4V80
		c0-2.7,1-5.2,2.9-7.1c1.9-1.9,4.4-2.9,7.1-2.9h122.2c2.7,0,5.2,1,7.1,2.9c1.9,1.9,2.9,4.4,2.9,7.1V116.4z M286.1,121.6h-116V83.1
		h116V121.6z M175.3,116.4h105.6V88.3H175.3V116.4z"/>
</g>
</svg>
