<?xml version="1.0" encoding="utf-8"?>
<!-- Generator: Adobe Illustrator 22.0.1, SVG Export Plug-In . SVG Version: 6.00 Build 0)  -->
<svg version="1.1" id="_x2014_ÎÓÈ_x5F_1" xmlns="http://www.w3.org/2000/svg" xmlns:xlink="http://www.w3.org/1999/xlink"
	 x="0px" y="0px" viewBox="0 0 528.4 528.4" enable-background="new 0 0 528.4 528.4" xml:space="preserve">
<g>
	<g>
		<path fill="#783E86" d="M299.2,318.2l-19.3,16.8c-2.2,1.9-5.4,1.7-7.4-0.3c-13.4-14.1-28.1-31.4-42.3-52.2
			c-12.5-18.2-22.3-35.6-30.1-51.2c-1.3-2.6-0.3-5.7,2.2-7.1l22.4-12.3c1.8-1,3.3-2.5,4.3-4.4l8.2-15.5c1.3-2.4,1.2-5.3-0.1-7.6
			l-33.8-61.3c-1.3-2.4-3.7-3.9-6.4-4.1l-18.7-1.4c-2.1-0.2-4.1,0.3-6,1.3l-21.6,11.9l-7.1,3.9c-8.4,4.6-13.8,13.4-13.9,23
			c-0.1,10.1,1.5,21.6,4.5,34.2c8.5,35.3,28.9,78.7,58.9,121.6c30,42.8,63.9,76.8,94.1,96.9l0,0c10.7,7.1,21,12.5,30.4,15.8
			c9,3.2,19.2,1.2,26.4-5.1l6.2-5.4l18.6-16.2c1.6-1.4,2.7-3.2,3.3-5.2l5.1-18.1c0.7-2.6,0.1-5.4-1.7-7.5L329.3,316
			c-1.8-2-4.5-3-7.1-2.7l-17.4,2.4C302.7,316,300.8,316.8,299.2,318.2z"/>
		<g>
			<path fill="#783E86" d="M371.4,187.8c-18.7-26.3-44.5-44.7-72.9-54.3c-5.2-1.8-10.9,1-12.7,6.1l-0.6,1.7
				c-1.9,5.3,0.9,11.3,6.2,13.1c24.9,8.4,46.5,24.3,62,46.2c15.6,22,23.6,47.9,23.2,74.4c-0.1,5.7,4.6,10.3,10.3,10.2l1.8,0
				c5.5-0.1,9.9-4.5,10-10C399.1,245,390.3,214.3,371.4,187.8z"/>
			<path fill="#783E86" d="M335.4,213.4c-13.3-18.7-31.8-31.7-52.1-38.3c-5.2-1.7-10.8,1-12.7,6.1l-0.6,1.8
				c-2,5.4,0.9,11.3,6.4,13.1c16,5.2,30.5,15.4,41,30.1c10.6,14.9,15.4,32.2,14.9,49.2c-0.2,5.8,4.5,10.5,10.3,10.4l1.9,0
				c5.5-0.1,9.8-4.5,10-9.9C355,254.3,348.9,232.4,335.4,213.4z"/>
		</g>
	</g>
	<path fill="#783E86" d="M264.2,6.2c-142.5,0-258,115.5-258,258s115.5,258,258,258s258-115.5,258-258S406.7,6.2,264.2,6.2z
		 M264.2,486.4C141.7,486.4,42,386.7,42,264.2S141.7,42,264.2,42s222.2,99.7,222.2,222.2S386.7,486.4,264.2,486.4z"/>
</g>
</svg>
