<?xml version="1.0" encoding="utf-8"?>
<!-- Generator: Adobe Illustrator 22.0.1, SVG Export Plug-In . SVG Version: 6.00 Build 0)  -->
<svg version="1.1" id="Layer_1" xmlns="http://www.w3.org/2000/svg" xmlns:xlink="http://www.w3.org/1999/xlink" x="0px" y="0px"
	 viewBox="0 0 49.6 49.6" enable-background="new 0 0 49.6 49.6" xml:space="preserve">
<linearGradient id="SVGID_1_" gradientUnits="userSpaceOnUse" x1="24.8321" y1="1.7259" x2="24.8321" y2="47.8572">
	<stop  offset="0" style="stop-color:#00AEEF"/>
	<stop  offset="1" style="stop-color:#1B75BC"/>
</linearGradient>
<path fill="url(#SVGID_1_)" d="M48.7,40.1c0,4.3-3.5,7.7-7.7,7.7H8.7c-4.3,0-7.7-3.5-7.7-7.7V9.4c0-4.3,3.5-7.7,7.7-7.7h32.2
	c4.3,0,7.7,3.5,7.7,7.7V40.1z"/>
<path fill="#FFFFFF" d="M38.2,15.2H12.4c-1.3,0-2.4,1.1-2.4,2.4v15.3c0,1.3,1.1,2.4,2.4,2.4h25.8c1.3,0,2.4-1.1,2.4-2.4V17.7
	C40.7,16.3,39.6,15.2,38.2,15.2z M39.4,34.3c-0.1,0.1-0.3,0.2-0.4,0.2c-0.2,0-0.3-0.1-0.4-0.2L30.2,26c-0.1-0.1-0.1-0.1-0.1-0.2
	l-2.6,2.3c-0.6,0.6-1.3,0.8-2.1,0.8c-0.8,0-1.5-0.3-2.1-0.8l-2.7-2.4c0,0.1-0.1,0.2-0.2,0.3l-8.3,8.3c-0.1,0.1-0.3,0.2-0.4,0.2
	c-0.2,0-0.3-0.1-0.4-0.2c-0.2-0.2-0.2-0.6,0-0.9l8.3-8.3c0.1-0.1,0.1-0.1,0.2-0.1l-8.5-7.6c-0.3-0.2-0.3-0.6,0-0.9
	c0.2-0.3,0.6-0.3,0.9-0.1l12.1,10.8c0.3,0.3,0.8,0.5,1.2,0.5c0.4,0,0.9-0.2,1.2-0.5l11.9-10.6l0,0c0.2-0.2,0.6-0.2,0.9,0.1
	c0.2,0.2,0.2,0.6-0.1,0.9L30.9,25c0,0,0.1,0,0.1,0.1l8.3,8.3C39.6,33.7,39.6,34,39.4,34.3z"/>
</svg>
